<?xml version="1.0" encoding="utf-8"?>
<!-- Generator: Adobe Illustrator 24.3.0, SVG Export Plug-In . SVG Version: 6.00 Build 0)  -->
<svg version="1.1"
	 id="Layer_1" xmlns:cc="http://creativecommons.org/ns#" xmlns:dc="http://purl.org/dc/elements/1.1/" xmlns:rdf="http://www.w3.org/1999/02/22-rdf-syntax-ns#"
	 xmlns="http://www.w3.org/2000/svg" xmlns:xlink="http://www.w3.org/1999/xlink" x="0px" y="0px" viewBox="0 0 1024 1024"
	 style="enable-background:new 0 0 1024 1024;" xml:space="preserve">
<style type="text/css">
	.st0{fill:url(#SVGID_1_);}
	.st1{fill:#FFFFFF;}
	.st2{fill:#161616;stroke:#5E5E5E;stroke-width:11;stroke-miterlimit:10;}
	.st3{fill:url(#SVGID_2_);}
	.st4{fill:url(#SVGID_3_);}
	.st5{fill:url(#SVGID_4_);}
	.st6{fill:url(#SVGID_5_);}
	.st7{fill:url(#SVGID_6_);}
	.st8{fill:url(#SVGID_7_);}
	.st9{fill:url(#SVGID_8_);}
</style>
<g>
	
		<linearGradient id="SVGID_1_" gradientUnits="userSpaceOnUse" x1="356.3938" y1="-805.976" x2="704.1462" y2="-846.0851" gradientTransform="matrix(1.1407 0 0 0.8865 65.3644 1419.9757)">
		<stop  offset="0" style="stop-color:#387EB8"/>
		<stop  offset="1" style="stop-color:#366994"/>
	</linearGradient>
	<path class="st0" d="M748.2,749.5c-2-32.6-9.1-53.5-24.2-94l-0.7-2.6l2-1.3c17.6-13.1,28.1-29.4,35.9-41.1l3.3-5.2l2.6,4.6
		c5.2,8.5,45.7,88.1,45.7,99.9v1.3l-0.7,0.7c-3.9,3.9-37.9,28.1-58.8,40.5l-4.6,2.6L748.2,749.5z"/>
	<path class="st1" d="M764.5,611.7c5.9,9.8,45,87.5,45,97.9c-3.3,3.3-37.2,27.4-58.1,39.8c-2-33.3-9.8-55.5-24.2-94.7
		C746.2,641.1,756.7,624.1,764.5,611.7 M764.5,599.3l-5.9,9.1l-0.7,0.7c-7.8,12.4-17.6,27.4-34.6,40.5l-3.9,2.6l2,4.6
		c15,40.5,22.2,60.7,23.5,92.7l0.7,10.4l9.1-5.2c20.9-12.4,55.5-37.2,59.4-41.1l2-2V709c0-13.7-42.4-95.3-45.7-101.2L764.5,599.3
		L764.5,599.3z"/>
</g>
<g>
	<path class="st2" d="M392.4,666.6V535.4L769.7,158L901,289.3L523.6,666.6H392.4z M801.7,126.7l64.6-64.6
		c7.2-7.2,16.3-10.4,26.1-10.4s18.9,3.9,26.1,10.4l79,79c14.4,14.4,14.4,37.9,0,52.2l-64.6,64.6L801.7,126.7z"/>
</g>
<g>
	
		<linearGradient id="SVGID_2_" gradientUnits="userSpaceOnUse" x1="357.8773" y1="1143.936" x2="492.3248" y2="1162.5118" gradientTransform="matrix(1 0 0 1 0 -644)">
		<stop  offset="0" style="stop-color:#387EB8"/>
		<stop  offset="1" style="stop-color:#366994"/>
	</linearGradient>
	<path class="st3" d="M367,820.6c-10.4,0-20.9-7.2-36.6-24.2c-54.8-54.2-131.2-162.5-177.6-281.4c-37.2-93.3-66.6-221.9,1.3-302.9
		c24.8-30,58.1-45,97.9-45c71.2,0,167.8,51.6,264.4,142.3l2.6,2.6l-30.7,30.7l-2-2c-69.2-52.2-126.6-78.3-171-78.3
		c-37.2,0-64,19.6-79.6,58.1c-33.3,88.1,29.4,195.8,87.5,279.4l0.7,0.7v134.5h100.5l0.7,1.3c17,22.8,29.4,39.8,38.5,54.2l3.9,6.5
		l-7.2-1.3c-7.2-1.3-14.4-2-20.9-2c-25.5,0-39.8,9.1-50.9,17C382,816.1,375.5,820.6,367,820.6z"/>
	<path class="st1" d="M252.1,170.5c81.6,0,181.5,65.9,262.4,141l-26.8,26.8c-60.1-45-122.7-79-173-79c-35.9,0-65.3,17-82.9,60.1
		c-32,84.2,21.5,187.4,88.1,282.7v136.4h102.5c14.4,19.6,28.1,37.2,38.5,54.2c-7.8-1.3-15-2-21.5-2c-43.7,0-54.8,26.8-73.1,26.8
		c-8.5,0-18.3-5.9-33.9-22.8C214.9,677.7,36,357.8,156.1,214.8C182.2,183.5,215.5,170.5,252.1,170.5 M251.4,163.9
		c-40.5,0-74.4,15.7-99.9,46.3c-69.2,82.3-39.2,212.2-2,306.2c47,119.5,123.4,227.8,178.9,282.7c15.7,17,27.4,24.8,38.5,24.8
		c9.1,0,16.3-5.2,24.2-10.4c11.1-7.2,24.2-16.3,49-16.3c6.5,0,13.1,0.7,20.2,2l14.4,2.6l-7.8-12.4c-9.8-15-21.5-32-39.2-54.8l-2-2.6
		h-3.3h-95.3V601.9v-2l-1.3-2c-58.1-82.9-120.8-189.3-87.5-276.8c15.7-37.2,40.5-55.5,76.4-55.5c42.4,0,101.2,26.8,169.1,77.7
		l4.6,3.3l3.9-3.9l26.8-26.8l4.6-4.6l-5.2-4.6C461.6,254,350.7,163.9,251.4,163.9v6.5V163.9C252.1,163.9,251.4,163.9,251.4,163.9
		L251.4,163.9z"/>
</g>
<g>
	
		<linearGradient id="SVGID_3_" gradientUnits="userSpaceOnUse" x1="169.2287" y1="1692.8501" x2="298.6197" y2="1423.0804" gradientTransform="matrix(1 0 0 1 0 -644)">
		<stop  offset="0" style="stop-color:#387EB8"/>
		<stop  offset="1" style="stop-color:#366994"/>
	</linearGradient>
	<path class="st4" d="M246.2,907.4c-2.6,0-5.9,0-8.5,0c-51.6-2-90.7-24.8-115.5-66.6C36,723.4,113.7,536.7,346.7,301l1.3-1.3h1.3
		c3.9,0,7.2,0,11.1,0c3.3,0,6.5,0,9.8,0c3.3,0,6.5,0,10.4,0h6.5l-3.9,5.2c-3.9,5.9-15,17.6-28.7,33.3
		c-27.4,31.3-65.3,73.8-83.6,102.5c-96.6,149.5-118.2,255.9-64.6,316.6c19.6,21.5,49,33.3,82.3,33.3c30,0,78.3-9.8,136.4-54.8
		l0.7-0.7h125.3l35.9-35.9l2.6,2.6c2.6,2.6,3.9,5.2,4.6,5.2l1.3,2l-1.3,2C517.1,806.3,359.1,907.4,246.2,907.4z"/>
	<path class="st1" d="M380.7,303c-11.8,16.3-84.9,92.7-112.3,135.8c-77,119.5-129.3,246.8-64,320.5c19.6,21.5,49,34.6,84.9,34.6
		c40.5,0,88.8-16.3,138.4-55.5H553l34.6-34.6c2.6,2.6,3.9,4.6,4.6,5.2c-72.5,89.4-229.8,195.2-346,195.2c-2.6,0-5.2,0-7.8,0
		c-46.3-2-86.8-20.9-112.9-65.3C2.1,670.5,253.4,400.2,349.3,303c3.9,0,7.8,0,11.1,0C367,303,373.5,303,380.7,303 M346.7,296.4l-2,2
		c-234.4,237-312,425-225.2,544.4c25.5,43.1,65.3,65.9,118.2,67.9c2.6,0,5.9,0,8.5,0c113.6,0,272.9-102.5,350.5-197.8l3.3-3.9
		l-3.3-3.9c-0.7-0.7-2.6-3.3-4.6-5.9l-3.9-4.6l-5.2,4.6l-32.6,32.6H427.7h-2l-2,1.3c-57.4,45-104.4,54.2-134.5,54.2
		c-33.3,0-61.4-11.8-80.3-32.6c-52.2-59.4-30.7-164.5,64.6-312.7c18.3-28.1,55.5-71.2,83.6-101.8c13.7-15.7,24.8-28.1,28.7-33.3
		l7.2-10.4H380c-3.3,0-7.2,0-10.4,0c-3.3,0-6.5,0-9.8,0c-3.9,0-7.2,0-10.4,0H346.7L346.7,296.4z"/>
</g>
<g>
	
		<linearGradient id="SVGID_4_" gradientUnits="userSpaceOnUse" x1="197.4749" y1="343.2754" x2="535.2462" y2="360.6539" gradientTransform="matrix(1 0 0 -1 0 949)">
		<stop  offset="0" style="stop-color:#FFE052"/>
		<stop  offset="1" style="stop-color:#FFC331"/>
	</linearGradient>
	<path class="st5" d="M434.9,830.4c-120.1,0-292.4-47.7-373.4-135.1c-35.9-38.5-52.9-82.9-49-129.9
		c11.8-163.2,251.3-206.9,391-206.9c20.9,0,40.5,0.7,58.8,2.6l7.2,0.7L442,389.1h-1.3c-7.2,0.7-13.1,1.3-18.9,2
		c-22.8,2.6-39.8,3.9-85.5,13.1c-68.5,13.7-158,41.1-193.2,96c-15,23.5-18.9,49.6-12.4,79c20.9,79.6,118.8,106.4,190.6,118.8
		l2.6,0.7v36.6h225.9l-6.5,5.9c-24.8,21.5-30.7,40.5-35.3,55.5c-5.9,19.6-10.4,33.3-50.9,33.3C449.9,830.4,442.7,830.4,434.9,830.4
		L434.9,830.4z"/>
	<path class="st1" d="M402.9,361.7c20.9,0,40.5,0.7,58.1,2.6l-21.5,21.5c-34.6,3.9-47,3.9-104.4,15
		C213.6,425,103.2,477.3,126.7,579.7c19.6,74.4,101.8,105.1,193.2,121.4v37.2h220.6c-57.4,50.9-16.3,88.1-84.2,88.1
		c-7.2,0.7-14.4,0.7-21.5,0.7c-156,0-432.8-83.6-419.7-261.8C26.2,412.6,246.9,361.7,402.9,361.7 M402.9,355.2
		C262.5,355.2,21,399.6,9.2,564.7C6,613,22.3,658.1,59.5,697.3c82.3,88.1,255.2,136.4,376,136.4c7.8,0,15,0,22.2-0.7
		c40.5,0,47-13.7,54.2-35.9c4.6-15,10.4-33.3,34.6-54.2l13.1-11.1h-17H327.2v-30.7v-5.2l-5.9-1.3c-112.9-20.2-172.3-57.4-188-116.8
		c-6.5-28.1-2.6-53.5,12.4-76.4c27.4-41.8,93.3-74.4,191.3-94c45.7-8.5,62-10.4,84.9-13.1c5.9-0.7,11.8-1.3,18.9-2h2l1.3-1.3
		l21.5-21.5l9.8-9.8l-13.7-1.3C443.3,355.8,423.8,355.2,402.9,355.2L402.9,355.2z"/>
</g>
<g>
	<g>
		
			<linearGradient id="SVGID_5_" gradientUnits="userSpaceOnUse" x1="464.5421" y1="724.448" x2="712.0988" y2="737.1839" gradientTransform="matrix(1 0 0 -1 0 949)">
			<stop  offset="0" style="stop-color:#FFE052"/>
			<stop  offset="1" style="stop-color:#FFC331"/>
		</linearGradient>
		<path class="st6" d="M340.2,308.2c32.6-36.6,212.8-177.6,332.3-177.6c6.5,0,13.1,0.7,19.6,1.3l6.5,0.7l-80.3,80.3l-2-0.7
			c-9.1-3.3-19.6-5.2-31.3-5.2c-27.4,0-61.4,9.8-100.5,29.4c-3.9,2-7.8,3.9-11.8,5.9c-28.1,13.7-56.8,27.4-89.4,62.7l-0.7,0.7h-1.3
			c-11.1,2-15,2.6-18.9,3.3c-3.9,0.7-8.5,2-19.6,3.9l-9.1,2L340.2,308.2z"/>
		<path class="st1" d="M672.5,133.9c6.5,0,13.1,0.7,18.9,1.3L617.6,209c-9.1-3.3-20.2-5.2-32-5.2c-26.1,0-59.4,8.5-102.5,30
			c-31.3,15.7-64.6,28.7-101.8,69.2c-22.2,3.9-16.3,3.3-38.5,7.2C370.2,279.5,550.4,133.9,672.5,133.9 M672.5,127.4
			c-126.6,0-307.5,148.2-334.9,178.2l-12.4,14.4l18.9-3.3c11.1-2,15.7-2.6,19.6-3.9c3.9-0.7,7.8-1.3,18.9-3.3l2-0.7l1.3-1.3
			c32-34.6,60.7-48.3,88.1-62c3.9-2,7.8-3.9,11.8-5.9c39.2-19.6,72.5-29.4,99.2-29.4c11.1,0,20.9,1.3,30,4.6l3.9,1.3l2.6-2.6
			l74.4-73.8l9.1-9.1l-13.1-2C685.5,128,679,127.4,672.5,127.4L672.5,127.4z"/>
	</g>
</g>
<g>
	
		<linearGradient id="SVGID_6_" gradientUnits="userSpaceOnUse" x1="525.3824" y1="1.5331" x2="720.8551" y2="390.6116" gradientTransform="matrix(1 0 0 -1 0 949)">
		<stop  offset="0" style="stop-color:#FFE052"/>
		<stop  offset="1" style="stop-color:#FFC331"/>
	</linearGradient>
	<path class="st7" d="M680.3,995.6c-112.9,0-256.5-93.3-331-184.1l-0.7-1.3v-1.3c2.6-13.1,7.8-41.8,12.4-71.2l0.7-2.6h69.2l0.7,1.3
		c58.8,62.7,144.3,137.7,218.7,137.7l0,0c27.4,0,51.6-10.4,71.8-30.7c45.7-50.9,37.2-135.1-24.8-250l-1.3-2l35.3-35.3l2,3.3
		c89.4,136.4,114.2,259.8,73.1,366.9C780.2,972.1,737.1,995.6,680.3,995.6L680.3,995.6z"/>
	<path class="st1" d="M731.9,560.8c70.5,107.1,121.4,237.6,73.1,363.6c-28.7,48.3-73.8,67.9-124.7,67.9
		C568,992.3,425.7,899,352,809.5c2.6-13.1,7.8-42.4,12.4-71.2h65.3c57.4,61.4,144.3,138.4,221.3,138.4c26.8,0,52.2-9.1,74.4-31.3
		c53.5-60.1,28.7-156-24.2-253.9L731.9,560.8 M732.5,550.4l-5.9,5.9L696,586.9l-3.3,3.3l2.6,4.6c61.4,113.6,69.8,196.5,25.5,246.1
		c-19.6,19.6-43.1,29.4-69.8,29.4c-73.1,0-158-74.4-216.7-136.4l-2-2h-2.6h-65.3h-5.9l-0.7,5.2c-4.6,28.7-9.8,58.1-12.4,71.2
		l-0.7,3.3l2,2.6c74.4,90.7,220,185.4,333.6,185.4c58.8,0,102.5-24.2,130.6-71.2v-0.7V927c41.1-107.7,16.3-232.4-73.8-369.5
		L732.5,550.4L732.5,550.4z"/>
</g>
<g>
	<g>
		
			<linearGradient id="SVGID_7_" gradientUnits="userSpaceOnUse" x1="578.6442" y1="173.4884" x2="774.4231" y2="482.005" gradientTransform="matrix(1 0 0 -1 0 949)">
			<stop  offset="0" style="stop-color:#387EB8"/>
			<stop  offset="1" style="stop-color:#366994"/>
		</linearGradient>
		<path class="st8" d="M495.6,827.2c-5.9,0-11.8,0-17-0.7h-0.7l-0.7-0.7c-36.6-26.1-47-32-51.6-34.6c-5.2-3.3-5.2-3.3-22.2-17.6
			l-2.6-2l2-2.6c12.4-16.3,13.7-22.8,13.1-25.5c0-0.7-0.7-1.3-2.6-2l-15.7-6.5h154.7l32.6-32.6h1.3
			c114.2-16.3,177.6-61.4,188.7-133.8c2.6-16.3,0.7-32.6-5.2-47l-0.7-2l57.4-57.4l2.6,2c32.6,27.4,51.6,60.7,55.5,98.6
			c3.9,43.7-12.4,86.2-48.3,126C755.4,775.6,600,827.2,495.6,827.2L495.6,827.2z"/>
		<path class="st1" d="M825.9,466.8c30.7,25.5,50.3,57.4,54.2,96.6c13.7,152.8-231.7,260.5-383.8,260.5c-5.9,0-11.1,0-17-0.7
			c-73.8-52.2-40.5-23.5-73.8-52.2c17-22.2,15.7-30,9.1-32.6h139l32.6-32.6c99.2-14.4,178.9-52.9,191.3-136.4
			c2.6-17.6,0.7-33.9-5.2-49L825.9,466.8 M825.2,457.7l-3.9,3.9l-53.5,53.5l-3.3,3.3l1.3,3.9c5.9,14.4,7.2,29.4,4.6,45.7
			c-10.4,70.5-73.1,114.9-186,131.2h-2l-1.3,1.3l-30.7,30.7H414.6h-33.9l31.3,12.4c0.7,0,0.7,0,0.7,0s0.7,5.2-12.4,22.2l-3.9,4.6
			l4.6,3.9c17,14.4,17,15,22.8,18.3c4.6,2.6,15,8.5,51.6,34.6l1.3,1.3h2c5.2,0,11.1,0.7,17,0.7c105.1,0,261.8-52.2,341.4-139
			c36.6-40.5,53.5-83.6,49.6-127.9c-3.9-39.2-22.8-73.1-56.8-101.2L825.2,457.7L825.2,457.7z"/>
	</g>
	<g>
		
			<linearGradient id="SVGID_8_" gradientUnits="userSpaceOnUse" x1="413.83" y1="567.9286" x2="437.8173" y2="605.7296" gradientTransform="matrix(1 0 0 -1 0 949)">
			<stop  offset="0" style="stop-color:#387EB8"/>
			<stop  offset="1" style="stop-color:#366994"/>
		</linearGradient>
		<path class="st9" d="M436.2,393.7c-11.8,0-20.2-0.7-25.5-2h-1.3l-9.8-11.8c-1.3-2-17-20.9-17-20.9h6.5c9.1,0,18.3-0.7,28.1-0.7
			c15,0,31.3,0.7,47.7,1.3l7.2,0.7l-33.9,33.9h-2V393.7z"/>
		<path class="st1" d="M416.6,361.1c14.4,0,30,0,47.7,1.3l-28.1,28.1c-11.1,0-19.6-0.7-24.8-2c-16.3-19.6-3.9-4.6-22.2-26.8
			C397.7,361.7,406.8,361.1,416.6,361.1 M416.6,354.5c-9.8,0-18.9,0-28.1,0.7l-13.1,0.7l8.5,10.4l7.2,9.1c3.9,5.2,3.9,5.2,5.9,6.5
			c1.3,1.3,3.3,3.9,9.1,11.1l1.3,2l2,0.7c5.9,1.3,14.4,2,26.1,2h2.6l2-2l28.1-28.1l10.4-10.4l-15-0.7
			C447.9,355.2,432.3,354.5,416.6,354.5L416.6,354.5z"/>
	</g>
</g>
</svg>
